<svg width="1800" height="1880" viewBox="0 0 1800 1880" fill="none" xmlns="http://www.w3.org/2000/svg" xmlns:xlink="http://www.w3.org/1999/xlink">
<path d="M64.666,1325.249L-0.883,1325.249L-0.883,1462.861L105.971,1376.147L64.666,1325.249ZM207.138,86.185L248.443,35.287L248.443,35.287L207.138,86.185ZM899.324,647.909L940.63,698.807L1003.35,647.909L940.63,597.011L899.324,647.909ZM64.666,1325.249L23.361,1274.351L-0.883,1294.027L-0.883,1325.249L64.666,1325.249ZM1591.516,86.185L1632.82,137.083L1632.82,137.083L1591.516,86.185ZM899.324,647.909L858.02,597.011L858.02,597.011L899.324,647.909ZM105.971,1376.147L940.63,698.807L858.02,597.011L23.361,1274.351L105.971,1376.147ZM858.02,597.011L23.361,1274.351L105.971,1376.147L940.63,698.807L858.02,597.011ZM130.215,1325.249L130.215,154.05L-0.883,154.05L-0.883,1325.249L130.215,1325.249ZM130.215,154.05C130.215,135.658 151.552,125.493 165.834,137.083L248.443,35.287C148.474,-45.839 -0.883,25.304 -0.883,154.05L130.215,154.05ZM165.834,137.083L858.02,698.807L940.63,597.011L248.443,35.287L165.834,137.083ZM858.02,597.011L23.361,1274.351L105.971,1376.147L940.63,698.807L858.02,597.011ZM-0.883,1325.249C-0.883,1519.635 126.828,1659.315 295.172,1747.159C463.426,1834.955 683.108,1878.007 898.982,1879.137C1114.812,1880.265 1334.746,1839.531 1503.318,1752.157C1672.492,1664.469 1799.534,1523.455 1799.534,1325.249L1668.434,1325.249C1668.434,1456.971 1586.81,1561.219 1442.988,1635.765C1298.562,1710.623 1101.168,1749.095 899.668,1748.039C698.212,1746.985 500.566,1706.463 355.822,1630.933C211.169,1555.451 130.215,1452.055 130.215,1325.249L-0.883,1325.249ZM1799.534,1325.249L1799.534,154.05L1668.434,154.05L1668.434,1325.249L1799.534,1325.249ZM1799.534,154.05C1799.534,25.306 1650.18,-45.841 1550.21,35.287L1632.82,137.083C1647.098,125.495 1668.434,135.655 1668.434,154.05L1799.534,154.05ZM1550.21,35.287L858.02,597.011L940.63,698.807L1632.82,137.083L1550.21,35.287ZM858.02,597.011L23.361,1274.351L105.971,1376.147L940.63,698.807L858.02,597.011Z" fill="#FFFFFF" fill-opacity="0.08"/>
<path d="M632.627,1657.506C632.627,1714.475 591.424,1760.657 540.597,1760.657C489.77,1760.657 448.566,1714.475 448.566,1657.506C448.566,1600.538 489.77,1554.355 540.597,1554.355C591.424,1554.355 632.627,1600.538 632.627,1657.506Z" fill="#3E3E3E"/>
</svg>
