<svg width="38" height="36" viewBox="0 0 38 36" fill="none" xmlns="http://www.w3.org/2000/svg" xmlns:xlink="http://www.w3.org/1999/xlink">
<path d="M13.167,19.633C15.694,23.359 22.03,21.663 24.882,20.349C24.618,12.468 13.452,10.617 7.902,10.796C11.258,13.124 10.008,14.976 13.167,19.633Z" transform="rotate(30.945 16.392 16.341)" fill="#000000" stroke="#FFFFFF" stroke-width="0.074" stroke-miterlimit="3.999327"/>
<path d="M22.619,18.515C24.912,22.241 30.66,20.545 33.248,19.232C33.009,11.35 22.878,9.499 17.842,9.678C20.888,12.007 19.753,13.858 22.619,18.515Z" transform="rotate(182.881 25.545 15.223)" fill="#000000" stroke="#FFFFFF" stroke-width="0.074" stroke-miterlimit="3.999327"/>
<path d="M11.529,24.065C13.822,27.791 19.57,26.095 22.158,24.782C21.919,16.9 11.788,15.049 6.753,15.228C9.798,17.557 8.663,19.408 11.529,24.065Z" transform="rotate(-29.759 14.455 20.773)" fill="#000000" stroke="#FFFFFF" stroke-width="0.074" stroke-miterlimit="3.999327"/>
<path d="M19.058,17.207C21.351,20.933 27.099,19.237 29.686,17.924C29.447,10.042 19.316,8.191 14.281,8.37C17.326,10.699 16.192,12.55 19.058,17.207Z" transform="rotate(132.408 21.983 13.915)" fill="#000000" stroke="#FFFFFF" stroke-width="0.074" stroke-miterlimit="3.999327"/>
<path d="M11.275,27.85C13.568,31.576 19.316,29.88 21.904,28.567C21.665,20.685 11.534,18.834 6.498,19.013C9.544,21.342 8.409,23.193 11.275,27.85Z" transform="rotate(-80.232 14.201 24.559)" fill="#000000" stroke="#FFFFFF" stroke-width="0.074" stroke-miterlimit="3.999327"/>
</svg>
