<svg width="26" height="26" viewBox="0 0 26 26" fill="none" xmlns="http://www.w3.org/2000/svg" xmlns:xlink="http://www.w3.org/1999/xlink">
<line x1="0" y1="10" x2="24" y2="10" stroke="#4B72C2" stroke-width="2" stroke-miterlimit="3.999327" stroke-linecap="round" stroke-linejoin="round"/>
<path d="M14.914,0.086C14.133,-0.695 12.867,-0.695 12.086,0.086C11.305,0.867 11.305,2.133 12.086,2.914L14.914,0.086ZM24,12L25.414,13.414C26.195,12.633 26.195,11.367 25.414,10.586L24,12ZM12.086,21.086C11.305,21.867 11.305,23.133 12.086,23.914C12.867,24.695 14.133,24.695 14.914,23.914L12.086,21.086ZM12.086,2.914L22.586,13.414L25.414,10.586L14.914,0.086L12.086,2.914ZM22.586,10.586L12.086,21.086L14.914,23.914L25.414,13.414L22.586,10.586Z" fill="#4B72C2"/>
</svg>
