<svg width="40" height="36" viewBox="0 0 40 36" fill="none" xmlns="http://www.w3.org/2000/svg" xmlns:xlink="http://www.w3.org/1999/xlink">
<path d="M14.524,19.312C17.051,23.038 23.386,21.342 26.238,20.029C25.975,12.147 14.809,10.296 9.258,10.475C12.615,12.804 11.364,14.655 14.524,19.312Z" transform="rotate(30.945 17.748 16.02)" fill="#000000" stroke="#FFFFFF" stroke-width="0.074" stroke-miterlimit="3.999327"/>
<path d="M23.976,18.195C26.269,21.92 32.017,20.225 34.604,18.911C34.365,11.029 24.234,9.178 19.199,9.357C22.244,11.686 21.11,13.537 23.976,18.195Z" transform="rotate(182.881 26.901 14.903)" fill="#000000" stroke="#FFFFFF" stroke-width="0.074" stroke-miterlimit="3.999327"/>
<path d="M12.886,23.744C15.179,27.47 20.927,25.775 23.515,24.461C23.276,16.579 13.145,14.728 8.109,14.907C11.155,17.236 10.02,19.087 12.886,23.744Z" transform="rotate(-29.759 15.812 20.453)" fill="#000000" stroke="#FFFFFF" stroke-width="0.074" stroke-miterlimit="3.999327"/>
<path d="M20.414,16.887C22.707,20.613 28.455,18.917 31.043,17.603C30.804,9.722 20.673,7.871 15.637,8.05C18.683,10.378 17.548,12.229 20.414,16.887Z" transform="rotate(132.408 23.34 13.595)" fill="#000000" stroke="#FFFFFF" stroke-width="0.074" stroke-miterlimit="3.999327"/>
<path d="M12.632,27.53C14.925,31.256 20.673,29.561 23.26,28.247C23.022,20.365 12.891,18.514 7.855,18.693C10.9,21.022 9.766,22.873 12.632,27.53Z" transform="rotate(-80.232 15.558 24.239)" fill="#000000" stroke="#FFFFFF" stroke-width="0.074" stroke-miterlimit="3.999327"/>
</svg>
