<svg width="40" height="34" viewBox="0 0 40 34" fill="none" xmlns="http://www.w3.org/2000/svg" xmlns:xlink="http://www.w3.org/1999/xlink">
<path d="M13.922,18.596C16.449,22.322 22.785,20.627 25.637,19.313C25.374,11.431 14.207,9.58 8.657,9.759C12.013,12.088 10.763,13.939 13.922,18.596Z" transform="rotate(30.945 17.147 15.305)" fill="#000000" stroke="#FFFFFF" stroke-width="0.074" stroke-miterlimit="3.999327"/>
<path d="M23.374,17.479C25.667,21.205 31.415,19.509 34.003,18.195C33.764,10.313 23.633,8.462 18.597,8.641C21.643,10.97 20.508,12.821 23.374,17.479Z" transform="rotate(182.881 26.3 14.187)" fill="#000000" stroke="#FFFFFF" stroke-width="0.074" stroke-miterlimit="3.999327"/>
<path d="M12.285,23.028C14.577,26.754 20.325,25.059 22.913,23.745C22.674,15.863 12.543,14.012 7.508,14.191C10.553,16.52 9.418,18.371 12.285,23.028Z" transform="rotate(-29.759 15.21 19.737)" fill="#000000" stroke="#FFFFFF" stroke-width="0.074" stroke-miterlimit="3.999327"/>
<path d="M19.813,16.171C22.106,19.897 27.854,18.201 30.441,16.887C30.203,9.005 20.072,7.154 15.036,7.334C18.081,9.662 16.947,11.513 19.813,16.171Z" transform="rotate(132.408 22.739 12.879)" fill="#000000" stroke="#FFFFFF" stroke-width="0.074" stroke-miterlimit="3.999327"/>
<path d="M12.031,26.814C14.323,30.54 20.072,28.844 22.659,27.53C22.42,19.649 12.289,17.797 7.254,17.977C10.299,20.305 9.164,22.156 12.031,26.814Z" transform="rotate(-80.232 14.956 23.522)" fill="#000000" stroke="#FFFFFF" stroke-width="0.074" stroke-miterlimit="3.999327"/>
</svg>
