<svg width="40" height="36" viewBox="0 0 40 36" fill="none" xmlns="http://www.w3.org/2000/svg" xmlns:xlink="http://www.w3.org/1999/xlink">
<path d="M13.595,19.223C16.123,22.949 22.458,21.253 25.31,19.94C25.047,12.058 13.88,10.207 8.33,10.386C11.687,12.715 10.436,14.566 13.595,19.223Z" transform="rotate(30.945 16.82 15.931)" fill="#000000" stroke="#FFFFFF" stroke-width="0.074" stroke-miterlimit="3.999327"/>
<path d="M23.047,18.105C25.34,21.831 31.088,20.136 33.676,18.822C33.437,10.94 23.306,9.089 18.27,9.268C21.316,11.597 20.181,13.448 23.047,18.105Z" transform="rotate(182.881 25.973 14.814)" fill="#000000" stroke="#FFFFFF" stroke-width="0.074" stroke-miterlimit="3.999327"/>
<path d="M11.958,23.655C14.251,27.381 19.999,25.686 22.586,24.372C22.347,16.49 12.216,14.639 7.181,14.818C10.226,17.147 9.091,18.998 11.958,23.655Z" transform="rotate(-29.759 14.883 20.364)" fill="#000000" stroke="#FFFFFF" stroke-width="0.074" stroke-miterlimit="3.999327"/>
<path d="M19.486,16.798C21.779,20.523 27.527,18.828 30.114,17.514C29.876,9.632 19.745,7.781 14.709,7.96C17.754,10.289 16.62,12.14 19.486,16.798Z" transform="rotate(132.408 22.412 13.506)" fill="#000000" stroke="#FFFFFF" stroke-width="0.074" stroke-miterlimit="3.999327"/>
<path d="M11.704,27.441C13.997,31.167 19.745,29.471 22.332,28.157C22.093,20.275 11.962,18.424 6.927,18.603C9.972,20.932 8.837,22.783 11.704,27.441Z" transform="rotate(-80.232 14.629 24.149)" fill="#000000" stroke="#FFFFFF" stroke-width="0.074" stroke-miterlimit="3.999327"/>
</svg>
