<svg width="38" height="36" viewBox="0 0 38 36" fill="none" xmlns="http://www.w3.org/2000/svg" xmlns:xlink="http://www.w3.org/1999/xlink">
<path d="M12.851,18.685C15.378,22.411 21.714,20.715 24.565,19.402C24.302,11.52 13.136,9.669 7.586,9.848C10.942,12.177 9.692,14.028 12.851,18.685Z" transform="rotate(30.945 16.076 15.394)" fill="#000000" stroke="#FFFFFF" stroke-width="0.074" stroke-miterlimit="3.999327"/>
<path d="M22.303,17.568C24.596,21.294 30.344,19.598 32.932,18.284C32.693,10.402 22.562,8.551 17.526,8.73C20.571,11.059 19.437,12.91 22.303,17.568Z" transform="rotate(182.881 25.229 14.276)" fill="#000000" stroke="#FFFFFF" stroke-width="0.074" stroke-miterlimit="3.999327"/>
<path d="M11.213,23.118C13.506,26.843 19.254,25.148 21.842,23.834C21.603,15.952 11.472,14.101 6.437,14.28C9.482,16.609 8.347,18.46 11.213,23.118Z" transform="rotate(-29.759 14.139 19.826)" fill="#000000" stroke="#FFFFFF" stroke-width="0.074" stroke-miterlimit="3.999327"/>
<path d="M18.742,16.259C21.034,19.985 26.783,18.29 29.37,16.976C29.131,9.094 19,7.243 13.965,7.422C17.01,9.751 15.875,11.602 18.742,16.259Z" transform="rotate(132.408 21.667 12.968)" fill="#000000" stroke="#FFFFFF" stroke-width="0.074" stroke-miterlimit="3.999327"/>
<path d="M10.959,26.903C13.252,30.629 19,28.933 21.588,27.619C21.349,19.738 11.218,17.887 6.182,18.066C9.228,20.394 8.093,22.246 10.959,26.903Z" transform="rotate(-80.232 13.885 23.611)" fill="#000000" stroke="#FFFFFF" stroke-width="0.074" stroke-miterlimit="3.999327"/>
</svg>
