<svg width="40" height="36" viewBox="0 0 40 36" fill="none" xmlns="http://www.w3.org/2000/svg" xmlns:xlink="http://www.w3.org/1999/xlink">
<path d="M14.095,19.722C16.622,23.448 22.958,21.752 25.81,20.438C25.547,12.557 14.38,10.705 8.83,10.885C12.186,13.213 10.936,15.064 14.095,19.722Z" transform="rotate(30.945 17.32 16.43)" fill="#000000" stroke="#FFFFFF" stroke-width="0.074" stroke-miterlimit="3.999327"/>
<path d="M23.547,18.604C25.84,22.33 31.588,20.634 34.176,19.32C33.937,11.438 23.806,9.587 18.77,9.766C21.816,12.095 20.681,13.946 23.547,18.604Z" transform="rotate(182.881 26.473 15.312)" fill="#000000" stroke="#FFFFFF" stroke-width="0.074" stroke-miterlimit="3.999327"/>
<path d="M12.458,24.154C14.751,27.88 20.499,26.184 23.086,24.871C22.847,16.989 12.716,15.138 7.681,15.317C10.726,17.646 9.592,19.497 12.458,24.154Z" transform="rotate(-29.759 15.384 20.862)" fill="#000000" stroke="#FFFFFF" stroke-width="0.074" stroke-miterlimit="3.999327"/>
<path d="M19.986,17.296C22.279,21.022 28.027,19.326 30.614,18.013C30.375,10.131 20.245,8.28 15.209,8.459C18.254,10.788 17.12,12.639 19.986,17.296Z" transform="rotate(132.408 22.912 14.004)" fill="#000000" stroke="#FFFFFF" stroke-width="0.074" stroke-miterlimit="3.999327"/>
<path d="M12.204,27.94C14.497,31.666 20.245,29.97 22.832,28.656C22.593,20.774 12.462,18.923 7.427,19.102C10.472,21.431 9.337,23.282 12.204,27.94Z" transform="rotate(-80.232 15.129 24.648)" fill="#000000" stroke="#FFFFFF" stroke-width="0.074" stroke-miterlimit="3.999327"/>
</svg>
