<svg width="14" height="12" viewBox="0 0 14 12" fill="none" xmlns="http://www.w3.org/2000/svg" xmlns:xlink="http://www.w3.org/1999/xlink">
<path d="M0.568,-0.485L12.713,-0.485C12.892,-0.485 13.063,-0.414 13.19,-0.288C13.317,-0.161 13.388,0.011 13.388,0.189L13.388,10.985C13.388,11.164 13.317,11.336 13.19,11.462C13.063,11.589 12.892,11.66 12.713,11.66L0.568,11.66C0.389,11.66 0.217,11.589 0.091,11.462C-0.036,11.336 -0.107,11.164 -0.107,10.985L-0.107,0.189C-0.107,0.011 -0.036,-0.161 0.091,-0.288C0.217,-0.414 0.389,-0.485 0.568,-0.485L0.568,-0.485ZM12.038,2.374L6.689,7.165L1.243,2.359L1.243,10.31L12.038,10.31L12.038,2.374ZM1.587,0.864L6.682,5.359L11.702,0.864L1.587,0.864Z" transform="rotate(-70.253 6.64 5.587)" fill="#FFFFFF"/>
</svg>
