<svg width="14" height="16" viewBox="0 0 14 16" fill="none" xmlns="http://www.w3.org/2000/svg" xmlns:xlink="http://www.w3.org/1999/xlink">
<path d="M6.76,15.332L2.466,11.038C1.617,10.189 1.038,9.107 0.804,7.929C0.57,6.751 0.69,5.53 1.15,4.42C1.609,3.311 2.388,2.362 3.386,1.695C4.385,1.028 5.559,0.671 6.76,0.671C7.961,0.671 9.135,1.028 10.134,1.695C11.132,2.362 11.911,3.311 12.37,4.42C12.83,5.53 12.95,6.751 12.716,7.929C12.481,9.107 11.903,10.189 11.054,11.038L6.76,15.332ZM10.1,10.084C10.76,9.423 11.21,8.582 11.392,7.666C11.574,6.749 11.481,5.8 11.123,4.937C10.766,4.074 10.161,3.336 9.384,2.817C8.607,2.298 7.694,2.021 6.76,2.021C5.826,2.021 4.913,2.298 4.136,2.817C3.359,3.336 2.754,4.074 2.396,4.937C2.039,5.8 1.945,6.749 2.128,7.666C2.31,8.582 2.76,9.423 3.42,10.084L6.76,13.424L10.1,10.084L10.1,10.084ZM6.76,8.093C6.402,8.093 6.059,7.951 5.806,7.698C5.553,7.445 5.411,7.102 5.411,6.744C5.411,6.386 5.553,6.043 5.806,5.79C6.059,5.537 6.402,5.394 6.76,5.394C7.118,5.394 7.461,5.537 7.714,5.79C7.967,6.043 8.109,6.386 8.109,6.744C8.109,7.102 7.967,7.445 7.714,7.698C7.461,7.951 7.118,8.093 6.76,8.093Z" transform="rotate(-70.253 6.76 8.002)" fill="#FFFFFF"/>
</svg>
