<svg width="14" height="14" viewBox="0 0 14 14" fill="none" xmlns="http://www.w3.org/2000/svg" xmlns:xlink="http://www.w3.org/1999/xlink">
<path d="M0.895,0.888L13.04,0.888C13.219,0.888 13.391,0.959 13.517,1.085C13.644,1.212 13.715,1.384 13.715,1.563L13.715,12.358C13.715,12.537 13.644,12.709 13.517,12.835C13.391,12.962 13.219,13.033 13.04,13.033L0.895,13.033C0.716,13.033 0.544,12.962 0.418,12.835C0.291,12.709 0.22,12.537 0.22,12.358L0.22,1.563C0.22,1.384 0.291,1.212 0.418,1.085C0.544,0.959 0.716,0.888 0.895,0.888L0.895,0.888ZM12.365,3.747L7.016,8.538L1.57,3.732L1.57,11.683L12.365,11.683L12.365,3.747ZM1.915,2.237L7.009,6.732L12.029,2.237L1.915,2.237Z" transform="rotate(-70.253 6.968 6.96)" fill="#FFFFFF"/>
</svg>
