<svg width="14" height="14" viewBox="0 0 14 14" fill="none" xmlns="http://www.w3.org/2000/svg" xmlns:xlink="http://www.w3.org/1999/xlink">
<path d="M6.331,13.741L2.038,9.448C1.188,8.598 0.61,7.516 0.376,6.338C0.141,5.16 0.262,3.939 0.721,2.83C1.181,1.72 1.959,0.772 2.958,0.105C3.956,-0.563 5.13,-0.919 6.331,-0.919C7.532,-0.919 8.707,-0.563 9.705,0.105C10.704,0.772 11.482,1.72 11.942,2.83C12.401,3.939 12.522,5.16 12.287,6.338C12.053,7.516 11.475,8.598 10.625,9.448L6.331,13.741ZM9.671,8.493C10.332,7.833 10.782,6.991 10.964,6.075C11.146,5.159 11.052,4.209 10.695,3.346C10.337,2.483 9.732,1.746 8.955,1.227C8.179,0.708 7.266,0.431 6.331,0.431C5.397,0.431 4.484,0.708 3.708,1.227C2.931,1.746 2.325,2.483 1.968,3.346C1.611,4.209 1.517,5.159 1.699,6.075C1.881,6.991 2.331,7.833 2.992,8.493L6.331,11.833L9.671,8.493L9.671,8.493ZM6.331,6.503C5.974,6.503 5.63,6.361 5.377,6.108C5.124,5.855 4.982,5.512 4.982,5.154C4.982,4.796 5.124,4.452 5.377,4.199C5.63,3.946 5.974,3.804 6.331,3.804C6.689,3.804 7.033,3.946 7.286,4.199C7.539,4.452 7.681,4.796 7.681,5.154C7.681,5.512 7.539,5.855 7.286,6.108C7.033,6.361 6.689,6.503 6.331,6.503Z" transform="rotate(-70.253 6.331 6.411)" fill="#FFFFFF"/>
</svg>
