<svg width="12" height="16" viewBox="0 0 12 16" fill="none" xmlns="http://www.w3.org/2000/svg" xmlns:xlink="http://www.w3.org/1999/xlink">
<path d="M5.087,14.705L0.793,10.411C-0.056,9.562 -0.635,8.48 -0.869,7.302C-1.103,6.124 -0.983,4.903 -0.523,3.793C-0.064,2.684 0.715,1.735 1.713,1.068C2.712,0.401 3.886,0.045 5.087,0.045C6.288,0.045 7.462,0.401 8.461,1.068C9.459,1.735 10.237,2.684 10.697,3.793C11.157,4.903 11.277,6.124 11.043,7.302C10.808,8.48 10.23,9.562 9.381,10.411L5.087,14.705ZM8.427,9.457C9.087,8.796 9.537,7.955 9.719,7.039C9.901,6.122 9.808,5.173 9.45,4.31C9.093,3.447 8.487,2.709 7.711,2.19C6.934,1.671 6.021,1.394 5.087,1.394C4.153,1.394 3.24,1.671 2.463,2.19C1.686,2.709 1.081,3.447 0.723,4.31C0.366,5.173 0.272,6.122 0.455,7.039C0.637,7.955 1.086,8.796 1.747,9.457L5.087,12.797L8.427,9.457L8.427,9.457ZM5.087,7.466C4.729,7.466 4.386,7.324 4.133,7.071C3.88,6.818 3.737,6.475 3.737,6.117C3.737,5.759 3.88,5.416 4.133,5.163C4.386,4.91 4.729,4.768 5.087,4.768C5.445,4.768 5.788,4.91 6.041,5.163C6.294,5.416 6.436,5.759 6.436,6.117C6.436,6.475 6.294,6.818 6.041,7.071C5.788,7.324 5.445,7.466 5.087,7.466Z" transform="rotate(-70.253 5.087 7.375)" fill="#FFFFFF"/>
</svg>
