<svg width="14" height="14" viewBox="0 0 14 14" fill="none" xmlns="http://www.w3.org/2000/svg" xmlns:xlink="http://www.w3.org/1999/xlink">
<path d="M0.14,-0.076L12.285,-0.076C12.464,-0.076 12.635,-0.004 12.762,0.122C12.888,0.249 12.959,0.42 12.959,0.599L12.959,11.395C12.959,11.574 12.888,11.745 12.762,11.872C12.635,11.998 12.464,12.069 12.285,12.069L0.14,12.069C-0.039,12.069 -0.211,11.998 -0.337,11.872C-0.464,11.745 -0.535,11.574 -0.535,11.395L-0.535,0.599C-0.535,0.42 -0.464,0.249 -0.337,0.122C-0.211,-0.004 -0.039,-0.076 0.14,-0.076L0.14,-0.076ZM11.61,2.784L6.261,7.574L0.814,2.769L0.814,10.72L11.61,10.72L11.61,2.784ZM1.159,1.274L6.253,5.769L11.274,1.274L1.159,1.274Z" transform="rotate(-70.253 6.212 5.997)" fill="#FFFFFF"/>
</svg>
